<svg width="921.71991" height="653.40956" xmlns="http://www.w3.org/2000/svg">
 <title>hacker_mindset</title>

 <g>
  <title>background</title>
  <rect fill="none" id="canvas_background" height="602" width="802" y="-1" x="-1"/>
 </g>
 <g>
  <title>Layer 1</title>
  <ellipse id="svg_1" fill="#d0cde1" ry="6" rx="85" cy="578.40956" cx="85.34394"/>
  <ellipse id="svg_2" fill="#d0cde1" ry="10.5" rx="221" cy="642.90956" cx="343.34394"/>
  <polygon id="svg_3" fill="#6c63ff" points="458.344 218.41 462.344 211.41 442.344 207.41 440.344 217.41 443.344 225.41 458.344 218.41"/>
  <polygon id="svg_4" opacity="0.2" points="458.344 218.41 462.344 211.41 442.344 207.41 440.344 217.41 443.344 225.41 458.344 218.41"/>
  <circle id="svg_5" fill="#ffb8b8" r="26" cy="187.90956" cx="446.84394"/>
  <polygon id="svg_6" fill="#ffb8b8" points="424.844 187.91 403.844 222.91 434.844 240.91 450.844 203.91 424.844 187.91"/>
  <path id="svg_7" fill="#6c63ff" d="m422.84395,228.90956l-27,-11s-41,7 -45,20s-4,118 -4,118s-10,26 4,27c0,0 -4,6 0,7s45,0 61,5s48,9 48,4l0,-9s7,-7 3,-19s-9,-38 -9,-38s30,-66 27,-74s-39.627,-32.73752 -39.627,-32.73752l-18.373,2.73752z"/>
  <polygon id="svg_8" fill="#ffb8b8" points="360.844 355.91 361.844 363.91 375.844 346.91 370.844 346.91 360.844 355.91"/>
  <path id="svg_9" fill="#6c63ff" d="m422.84395,228.90956l-29,-7s-6,-5 -6,-11s9,-15 15,-21a5.53494,5.53494 0 0 1 4.02,-1.67005c5.94,-0.05 13.14,7.74006 13.14,7.74006l-7.99,13.32995l-0.36,0.59l11.19,19.01004z"/>
  <path id="svg_10" fill="#6c63ff" d="m445.19695,216.96825l17.147,-5.55869s5.5,21.5 -0.5,22.5s-39,-2 -39,-2l22.353,-14.94131z"/>
  <path id="svg_11" fill="#2f2e41" d="m352.84395,384.90956l-13,74s-5,9 -3,13s3,4 0,6s-7,0 -6,5a51.04342,51.04342 0 0 1 1,9l-28,96s-18,8 -5,13s26,9 29,4s0,-11 0,-11l46,-110s7,-10 7,-16s23,-49 23,-49s1,43 2,46s-2,9 -2,13s-2,4 0,6s2,25 2,25s-12,89 -5,90s27,-1 27,-5s-3,-5 -3,-5l13,-76s-1,-5 1,-9s2,-4 2,-6s-1,-3 0,-4a4.93754,4.93754 0 0 0 1,-3s-2,-6 -1,-7s23,-76 16,-85s-104,-14 -104,-14z"/>
  <path id="svg_12" fill="#2f2e41" d="m401.84395,595.90956l-7,16s-16,18 -4,22s16,3 16,3s5,1 5,3s40,17 43,4s-31,-37 -31,-37l0,-12l-22,1z"/>
  <path id="svg_13" fill="#2f2e41" d="m324.70923,603.31567l1.51424,17.39847s9.40163,22.17227 -3.24739,22.12362s-16.119,-2.2756 -16.119,-2.2756s-5.05717,-0.65191 -5.69692,1.243s-43.33621,3.31188 -42.02021,-9.96472s41.20659,-25.13994 41.20659,-25.13994l3.83841,-11.36952l20.52428,7.98469z"/>
  <path id="svg_14" fill="#2f2e41" d="m421.52006,195.02713c1.606,-0.10777 2.67686,-1.85837 3.12129,-3.5239s0.55756,-3.49031 1.46479,-4.92153c2.486,-3.92181 8.95008,-2.33769 11.57509,-6.153c1.61443,-2.34646 1.27653,-6.16723 3.60711,-7.66021c1.47173,-0.9428 3.34776,-0.45722 4.96944,0.13509a54.30716,54.30716 0 0 1 17.11591,10.19386l2.08805,-1.70011l2.6083,5.21428c1.01118,-1.21946 2.96144,-0.274 3.81,1.08163s1.2604,3.0882 2.47038,4.0756c1.92859,1.5738 4.94138,0.24083 6.10956,-2.0413s0.97537,-5.072 0.57046,-7.6412a54.73664,54.73664 0 0 0 -6.34849,-18.32183l2.38634,-1.43177l-3.08517,-0.44062l1.1807,-2.67875l-3.23175,-0.03778l1.27614,-2.28985c-4.34441,1.49085 -8.8338,-1.23972 -12.98317,-3.27543c-6.94067,-3.40513 -14.74842,-5.03925 -22.28433,-3.77426a28.16811,28.16811 0 0 0 -19.05349,12.37673c-3.28584,5.166 -5.18305,12.66746 -3.54049,18.854c1.49301,5.62336 8.01137,6.49864 6.17333,13.96035z"/>
  <path id="svg_15" fill="#6c63ff" d="m356.84395,233.90956s-6,-1 -10,7s-34,72 -19,92s29,26 29,26l3,1l15,-16l-5,-7s0,-7 -4,-8s-4,2 -5,-2s4,-1 -1,-5s-1,-6 -1,-6l-2,-82z"/>
  <polygon id="svg_16" fill="#ffb8b8" points="462.844 367.41 461.844 375.41 447.844 358.41 452.844 358.41 462.844 367.41"/>
  <path id="svg_17" fill="#6c63ff" d="m461.34395,255.40956s14,-7 18,1s31.5,68 16.5,88s-29,26 -29,26l-3,1l-15,-16l5,-7s0,-7 4,-8s4,2 5,-2s-4,-1 1,-5s1,-6 1,-6l-3.5,-72z"/>
  <polygon id="svg_18" opacity="0.2" points="366.344 273.41 355.344 317.41 368.344 333.41 362.344 313.41 366.344 273.41"/>
  <path id="svg_19" opacity="0.2" d="m420.00395,195.97957l-7.99,13.32995c-5.02,-1.74 -5.44,-13.38995 -5.15,-21.07c5.94,-0.04999 13.14,7.74005 13.14,7.74005z"/>
  <path id="svg_20" fill="#d0cde1" d="m250.10811,615.67578c0.17358,17.79415 -10.34427,24.10956 -23.39225,24.23685q-0.45462,0.00443 -0.905,-0.00133q-0.90726,-0.01071 -1.796,-0.06514c-11.78438,-0.71893 -20.9982,-7.1609 -21.15964,-23.70942c-0.16706,-17.12566 21.50989,-38.95143 23.13581,-40.56545l0.00287,-0.00148c0.06177,-0.06151 0.09339,-0.09227 0.09339,-0.09227s23.84725,22.4055 24.02082,40.19824z"/>
  <path id="svg_21" fill="#d0cde1" d="m216.11865,529.84278c0.12253,12.56057 -7.30184,17.01851 -16.51218,17.10836q-0.32091,0.00314 -0.63879,-0.00094q-0.64042,-0.00756 -1.2678,-0.046c-8.31838,-0.50748 -14.82226,-5.05475 -14.93621,-16.73606c-0.11793,-12.0887 15.18345,-27.49513 16.33116,-28.63444l0.002,-0.001c0.0436,-0.04342 0.06592,-0.06513 0.06592,-0.06513s16.83338,15.81561 16.9559,28.37521z"/>
  <ellipse id="svg_22" fill="#d0cde1" ry="4.23529" rx="60" cy="545.18425" cx="199.34394"/>
  <rect id="svg_23" fill="#3f3d56" height="202" width="396.75193" y="279.81069" x="524.96798"/>
  <rect id="svg_24" fill="#6c63ff" height="3.34831" width="40.17978" y="347.82884" x="596.94506"/>
  <rect id="svg_25" fill="#6c63ff" height="3.34831" width="40.17978" y="347.82884" x="650.5181"/>
  <rect id="svg_26" fill="#6c63ff" height="3.34831" width="40.17978" y="378.80075" x="728.36641"/>
  <rect id="svg_27" fill="#6c63ff" height="3.34831" width="40.17978" y="378.80075" x="782.77653"/>
  <rect id="svg_28" fill="#6c63ff" height="3.34831" width="118.02809" y="347.82884" x="704.92821"/>
  <rect id="svg_29" fill="#6c63ff" height="3.34831" width="118.02809" y="378.80075" x="596.94506"/>
  <rect id="svg_30" fill="#6c63ff" height="3.34831" width="118.02809" y="409.77266" x="596.94506"/>
  <rect id="svg_31" fill="#6c63ff" height="3.34831" width="82.03371" y="409.77266" x="740.92259"/>
  <polygon id="svg_32" fill="#6c63ff" points="585.652 361.964 571.516 347.829 585.652 333.693 588.48 336.521 577.172 347.829 588.48 359.136 585.652 361.964"/>
  <polygon id="svg_33" fill="#6c63ff" points="861.036 427.257 858.208 424.429 869.516 413.12 858.208 401.813 861.036 398.985 875.172 413.12 861.036 427.257"/>
  <rect id="svg_34" fill="#6c63ff" transform="rotate(-73.13997650146484 45.81388092041017,1198.013671875) " height="4.00006" width="28.86361" y="1732.01138" x="1014.40513"/>
  <path id="svg_35" fill="#d0cde1" d="m92.8111,551.68142l74.0679,-110.14639l-73.91642,121.996l0.15457,12.39424q-8.11088,0.06185 -16.06418,-0.27013l3.6736,-159.31973l-0.10065,-1.22909l0.13556,-0.23748l0.35161,-15.05475l-81.11309,-117.76675l81.01738,106.49915l0.28751,3.1821l2.77474,-120.37228l-70.05985,-122.09715l70.25938,100.95121l-0.73336,-249.38034l0.00157,-0.83l0.02384,0.81631l4.65074,196.54523l63.85118,-79.83679l-63.64218,96.76873l1.39359,107.67021l58.75622,-105.082l-58.54025,120.91136l0.77576,59.87006l85.4474,-146.378l-85.18764,167.26411l1.73507,133.13217z"/>
  <text font-weight="normal" font-style="italic" transform="matrix(2.6468283844018003,0,0,3.6953682385740185,-876.8666755871805,-323.2622524242984) " stroke-dasharray="5,2,2,2,2,2" xml:space="preserve" text-anchor="start" font-family="'Courier New', Courier, monospace" font-size="24" id="svg_38" y="132.66285" x="522.33405" stroke-width="0" fill="#6c63ff">MY SKILLS</text>
 </g>
</svg>